{"title":"The.Host.2013.WEBRiP.AC3 5.1.XviD MiLLENiUM","uid":8387982,"size":2143967859,"categoryP":"video","categoryS":"movies","magnet":"?xt=urn:btih:484925d099c302ed7a411b6ee9d8d981f7e6b306&amp;dn=The.Host.2013.WEBRiP.AC3+5.1.XviD+MiLLENiUM&amp;tr=udp%3A%2F%2Ftracker.openbittorrent.com%3A80&amp;tr=udp%3A%2F%2Fopen.demonii.com%3A1337&amp;tr=udp%3A%2F%2Ftracker.coppersurfer.tk%3A6969&amp;tr=udp%3A%2F%2Fexodus.desync.com%3A6969","seeders":1,"leechers":0,"uploader":"Acesn8s","files":-1,"time":1366337499,"description":"Cover:\n &lt;a href=&quot;\nhttp://s17.postimg.org/nob1s8k2n/the_host_THEHOST_1sht_dm_wip21_rgb.jpg&quot; rel=&quot;nofollow&quot; target=&quot;_NEW&quot;&gt;\nhttp://s17.postimg.org/nob1s8k2n/the_host_THEHOST_1sht_dm_wip21_rgb.jpg&lt;/a&gt;\n\n==================================================================================\n\nThe.Host.2013.Webrip Xvid Ac3 5.1-MiLLENiUM\n\nSource : The.Host.2013.720p.KOR.HDRip.H-KTH [thanks]\nFormat : AVI\nFormat/Info : Audio Video Interleave\nFile size : 1.96 GiB\nDuration : 2h 10mn\nOverall bit rate : 2 152 Kbps\nWriting application : VirtualDubMod 1.5.10.2 (build 2540/release)\nWriting library : VirtualDubMod build 2540/release\n\n==================================================================================\n\nVideo\nID : 0\nFormat : MPEG-4 Visual\nFormat profile : Advanced Simple@L5\nFormat settings, BVOP : 2\nFormat settings, QPel : No\nFormat settings, GMC : No warppoints\nFormat settings, Matrix : Default (H.263)\nMuxing mode : Packed bitstream\nCodec ID : XVID\nCodec ID/Hint : XviD\nDuration : 2h 10mn\nBit rate : 1 692 Kbps\nWidth : 720 pixels\nHeight : 278 pixels\nDisplay aspect ratio : 2.590\nFrame rate : 29.970 fps\nColor space : YUV\nChroma subsampling : 4:2:0\nBit depth : 8 bits\nScan type : Progressive\nCompression mode : Lossy\nBits/(Pixel*Frame) : 0.282\nStream size : 1.54 GiB (79%)\nWriting library : XviD 1.2.1 (UTC 2008-12-04)\n\n==================================================================================\n\nAudio\nID : 1\nFormat : AC-3\nFormat/Info : Audio Coding 3\nMode extension : CM (complete main)\nCodec ID : 2000\nDuration : 2h 10mn\nBit rate mode : Constant\nBit rate : 448 Kbps\nChannel(s) : 6 channels\nChannel positions : Front: L C R, Side: L R, LFE\nSampling rate : 48.0 KHz\nBit depth : 16 bits\nCompression mode : Lossy\nDelay relative to video : 21ms\nStream size : 418 MiB (21%)\nAlignment : Split accross interleaves\nInterleave, duration : 33 ms (1.00 video frame)\nInterleave, preload duration : 500 ms\n\n==================================================================================\n\nCast:\n\nSaoirse Ronan, Diane Kruger, Max Irons\n\nPlot:\n\nWhen an unseen enemy threatens mankind by taking over their bodies and erasing\ntheir memories, Melanie will risk everything to protect the people she cares\nmost about, proving that love can conquer all in a dangerous new world. \n\nIMDb:\n &lt;a href=&quot;\nhttp://www.imdb.co.uk/title/tt1517260/&quot; rel=&quot;nofollow&quot; target=&quot;_NEW&quot;&gt;\nhttp://www.imdb.co.uk/title/tt1517260/&lt;/a&gt;\n\nNotes:\n\ncropped subs, alterd a/r, gamma, hue, saturation, brightness and contrast and sharpend up,\nreworked audio to 6 channel in soundforge, mixed back down in vegas then muxed back to vid.\nenjoy :)\n\n==================================================================================\n\nScreens :\n &lt;a href=&quot;\nhttp://s24.postimg.org/rtjsc3sx1/image.png&quot; rel=&quot;nofollow&quot; target=&quot;_NEW&quot;&gt;\nhttp://s24.postimg.org/rtjsc3sx1/image.png&lt;/a&gt;\n &lt;a href=&quot;\nhttp://s24.postimg.org/p0qks2skl/image.png&quot; rel=&quot;nofollow&quot; target=&quot;_NEW&quot;&gt;\nhttp://s24.postimg.org/p0qks2skl/image.png&lt;/a&gt;\n &lt;a href=&quot;\nhttp://s24.postimg.org/ymk58djqd/image.png&quot; rel=&quot;nofollow&quot; target=&quot;_NEW&quot;&gt;\nhttp://s24.postimg.org/ymk58djqd/image.png&lt;/a&gt;\n &lt;a href=&quot;\nhttp://s24.postimg.org/urgr5t0kl/image.png&quot; rel=&quot;nofollow&quot; target=&quot;_NEW&quot;&gt;\nhttp://s24.postimg.org/urgr5t0kl/image.png&lt;/a&gt;\n &lt;a href=&quot;\nhttp://s24.postimg.org/t0xq4bj1h/image.png&quot; rel=&quot;nofollow&quot; target=&quot;_NEW&quot;&gt;\nhttp://s24.postimg.org/t0xq4bj1h/image.png&lt;/a&gt;\n &lt;a href=&quot;\nhttp://s24.postimg.org/boxdivpk5/image.png&quot; rel=&quot;nofollow&quot; target=&quot;_NEW&quot;&gt;\nhttp://s24.postimg.org/boxdivpk5/image.png&lt;/a&gt;\n &lt;a href=&quot;\nhttp://s24.postimg.org/3kturvsit/image.png&quot; rel=&quot;nofollow&quot; target=&quot;_NEW&quot;&gt;\nhttp://s24.postimg.org/3kturvsit/image.png&lt;/a&gt;\n &lt;a href=&quot;\nhttp://s24.postimg.org/py1leotgl/image.png&quot; rel=&quot;nofollow&quot; target=&quot;_NEW&quot;&gt;\nhttp://s24.postimg.org/py1leotgl/image.png&lt;/a&gt;\n &lt;a href=&quot;\nhttp://s24.postimg.org/8m18t8zz9/image.png&quot; rel=&quot;nofollow&quot; target=&quot;_NEW&quot;&gt;\nhttp://s24.postimg.org/8m18t8zz9/image.png&lt;/a&gt;\n &lt;a href=&quot;\nhttp://s24.postimg.org/5t8197zmt/image.png&quot; rel=&quot;nofollow&quot; target=&quot;_NEW&quot;&gt;\nhttp://s24.postimg.org/5t8197zmt/image.png&lt;/a&gt;\n\n\nGREETZ TO ALL\nRESPECT TO ALL","torrent":{"xt":"urn:btih:484925d099c302ed7a411b6ee9d8d981f7e6b306","amp;dn":"The.Host.2013.WEBRiP.AC3+5.1.XviD+MiLLENiUM","amp;tr":["udp%3A%2F%2Ftracker.openbittorrent.com%3A80","udp%3A%2F%2Fopen.demonii.com%3A1337","udp%3A%2F%2Ftracker.coppersurfer.tk%3A6969","udp%3A%2F%2Fexodus.desync.com%3A6969"],"infoHash":"484925d099c302ed7a411b6ee9d8d981f7e6b306","infoHashBuffer":{"type":"Buffer","data":[72,73,37,208,153,195,2,237,122,65,27,110,233,216,217,129,247,230,179,6]},"announce":[],"urlList":[]}}